<svg width="232" height="146" viewBox="0 0 232 146" fill="none" xmlns="http://www.w3.org/2000/svg">
<circle cx="60.5" cy="45.5015" r="10" stroke="#7E73FF" stroke-width="5"/>
<circle cx="9" cy="62.0015" r="6.5" stroke="#7E73FF" stroke-width="5"/>
<circle cx="36.5" cy="74.5015" r="7" stroke="#7E73FF" stroke-width="5"/>
<path d="M84.3429 92.8437C89.0007 94.2046 93.9032 94.5102 98.694 93.7383C103.485 92.9664 108.043 91.1365 112.038 88.3816C116.033 85.6267 119.363 82.0161 121.787 77.8124C124.211 73.6087 125.668 68.9176 126.051 64.0802C126.434 59.2429 125.735 54.3809 124.003 49.8479C122.271 45.3149 119.551 41.2248 116.04 37.8752C112.529 34.5256 108.316 32.0006 103.706 30.4839C99.0967 28.9672 94.2072 28.4969 89.3932 29.1072L92.3576 52.4897C93.6968 52.3199 95.0569 52.4507 96.3392 52.8726C97.6214 53.2946 98.7935 53.997 99.7702 54.9288C100.747 55.8606 101.504 56.9983 101.985 58.2593C102.467 59.5203 102.662 60.8728 102.555 62.2185C102.448 63.5641 102.043 64.8691 101.369 66.0385C100.695 67.2079 99.7682 68.2123 98.6569 68.9786C97.5457 69.745 96.2776 70.254 94.9449 70.4688C93.6122 70.6835 92.2484 70.5985 90.9527 70.2199L84.3429 92.8437Z" fill="#FF6161"/>
<path d="M196.346 37.31C199.067 36.8382 200.936 34.2152 199.876 31.6655C198.442 28.2193 196.132 25.0106 193.009 22.15C188.48 18.0012 182.349 14.6835 175.039 12.4258C167.73 10.1681 159.416 9.0244 150.672 9.07357C143.865 9.11185 136.922 9.87257 130.138 11.3153C127.113 11.9585 125.58 15.2676 126.88 18.0735L138.685 43.551C139.637 45.6036 141.847 46.7619 144.076 46.3753L196.346 37.31Z" fill="#FF6161"/>
<circle cx="172" cy="85.0015" r="60" fill="#FFD6A6"/>
<path d="M193.303 92.5015C192.583 92.5015 191.99 93.088 192.1 93.7989C192.225 94.6122 192.469 95.4053 192.824 96.1526C193.367 97.2933 194.157 98.2988 195.137 99.0958C196.117 99.8928 197.262 100.461 198.489 100.76C199.717 101.059 200.995 101.081 202.232 100.823C203.468 100.566 204.632 100.036 205.638 99.2724C206.645 98.5088 207.468 97.5305 208.049 96.4087C208.629 95.2869 208.953 94.0498 208.995 92.7873C209.023 91.9602 208.93 91.1359 208.721 90.34C208.538 89.6442 207.76 89.3431 207.1 89.6301V89.6301C206.44 89.9171 206.154 90.6851 206.29 91.3916C206.372 91.8212 206.406 92.2599 206.392 92.6997C206.362 93.5753 206.138 94.4332 205.735 95.2112C205.333 95.9892 204.762 96.6677 204.064 97.1973C203.366 97.7269 202.559 98.0943 201.701 98.2728C200.843 98.4513 199.957 98.4363 199.106 98.2291C198.254 98.0219 197.46 97.6275 196.78 97.0748C196.101 96.522 195.553 95.8247 195.177 95.0336C194.988 94.6362 194.844 94.2202 194.748 93.7934C194.591 93.0916 194.022 92.5015 193.303 92.5015V92.5015Z" fill="#FF6161"/>
<path d="M187.3 109.001C186.582 109.001 185.989 109.588 186.112 110.296C186.241 111.035 186.48 111.757 186.824 112.438C187.367 113.511 188.157 114.458 189.137 115.208C190.117 115.958 191.262 116.493 192.489 116.774C193.717 117.056 194.995 117.076 196.232 116.834C197.468 116.591 198.632 116.093 199.638 115.374C200.645 114.655 201.468 113.735 202.049 112.679C202.629 111.623 202.953 110.459 202.995 109.27C203.023 108.491 202.93 107.714 202.72 106.964C202.534 106.301 201.792 106.016 201.155 106.277V106.277C200.476 106.555 200.184 107.344 200.315 108.066C200.382 108.435 200.409 108.811 200.396 109.188C200.366 110.013 200.142 110.821 199.739 111.554C199.336 112.286 198.764 112.925 198.066 113.424C197.368 113.923 196.56 114.269 195.702 114.437C194.844 114.605 193.956 114.591 193.105 114.396C192.253 114.201 191.458 113.829 190.778 113.309C190.098 112.788 189.55 112.131 189.173 111.386C188.995 111.034 188.857 110.666 188.762 110.289C188.585 109.592 188.019 109.001 187.3 109.001V109.001Z" fill="#FF6161"/>
<path d="M173.303 96.0015C172.583 96.0015 171.989 96.5889 172.112 97.2975C172.241 98.0368 172.48 98.7575 172.824 99.4379C173.367 100.511 174.157 101.458 175.137 102.208C176.117 102.958 177.262 103.493 178.489 103.774C179.717 104.056 180.995 104.076 182.232 103.834C183.468 103.591 184.632 103.093 185.638 102.374C186.645 101.655 187.468 100.735 188.049 99.6789C188.629 98.623 188.953 97.4587 188.995 96.2705C189.023 95.4917 188.93 94.7155 188.72 93.9661C188.535 93.3017 187.791 93.0159 187.153 93.2773V93.2773C186.473 93.5557 186.18 94.3469 186.311 95.0697C186.378 95.4378 186.405 95.8125 186.392 96.188C186.362 97.0121 186.138 97.8196 185.735 98.5518C185.333 99.2841 184.762 99.9226 184.064 100.421C183.366 100.92 182.559 101.265 181.701 101.433C180.843 101.601 179.957 101.587 179.106 101.392C178.254 101.197 177.46 100.826 176.78 100.306C176.101 99.7855 175.553 99.1293 175.177 98.3847C174.999 98.0334 174.862 97.6666 174.766 97.2906C174.589 96.5933 174.022 96.0015 173.303 96.0015V96.0015Z" fill="#FF6161"/>
</svg>
