<?xml version="1.0" standalone="no"?>
<!DOCTYPE svg PUBLIC "-//W3C//DTD SVG 20010904//EN"
 "http://www.w3.org/TR/2001/REC-SVG-20010904/DTD/svg10.dtd">
<svg version="1.0" xmlns="http://www.w3.org/2000/svg"
 width="522.000000pt" height="522.000000pt" viewBox="0 0 522.000000 522.000000"
 preserveAspectRatio="xMidYMid meet">
<metadata>
Created by potrace 1.11, written by Peter Selinger 2001-2013
</metadata>
<g transform="translate(0.000000,522.000000) scale(0.100000,-0.100000)"
fill="#000000" stroke="none">
<path d="M133 5199 c-38 -11 -100 -71 -119 -114 -18 -41 -21 -4876 -2 -4936
15 -53 82 -122 120 -124 3 0 10 -3 14 -7 4 -5 1106 -8 2450 -8 1935 0 2448 3
2470 13 103 44 132 96 134 237 1 79 2 204 1 220 0 8 0 44 0 80 1 36 1 72 0 80
0 8 0 47 0 85 1 39 1 77 0 85 0 8 0 44 0 80 1 36 1 71 0 78 -1 6 -1 18 -2 25
-1 12 0 107 2 222 1 33 1 66 0 73 0 6 -1 18 -2 25 -1 15 0 129 2 182 1 22 1
45 1 50 -1 6 -2 795 -3 1755 -1 960 -5 1759 -10 1776 -5 17 -25 47 -44 67 -71
73 156 67 -2544 66 -1472 0 -2449 -4 -2468 -10z"/>
</g>
</svg>
