<svg width="1600" height="900" viewBox="0 0 1600 900" fill="none" xmlns="http://www.w3.org/2000/svg">
<rect width="1600" height="900" fill="#C7E7EE"/>
<circle cx="799.5" cy="629.5" r="46.5" fill="#FFF5C4"/>
<rect y="702" width="1600" height="198" fill="#619292"/>
<rect x="747" y="702" width="106" height="15" fill="#7ABBBB"/>
<rect x="747" y="702" width="106" height="15" fill="#A0DADA"/>
<rect x="719" y="736" width="97" height="15" fill="#7ABBBB"/>
<rect x="719" y="736" width="97" height="15" fill="#A0DADA"/>
<rect x="788" y="761" width="115" height="16" fill="#7ABBBB"/>
<rect x="788" y="761" width="115" height="16" fill="#A0DADA"/>
<rect x="733" y="795" width="143" height="16" fill="#7ABBBB"/>
<rect x="733" y="795" width="143" height="16" fill="#A0DADA"/>
<rect x="716" y="825" width="100" height="15" fill="#7ABBBB"/>
<rect x="716" y="825" width="100" height="15" fill="#A0DADA"/>
<rect x="733" y="854" width="184" height="15" fill="#7ABBBB"/>
<rect x="733" y="854" width="184" height="15" fill="#A0DADA"/>
<rect x="719" y="885" width="184" height="15" fill="#7ABBBB"/>
<rect x="719" y="885" width="184" height="15" fill="#A0DADA"/>
<rect x="161" y="209" width="274" height="19" fill="#7ABBBB"/>
<rect x="161" y="209" width="274" height="19" fill="#D6EFF5"/>
<rect x="201" y="180" width="274" height="19" fill="#7ABBBB"/>
<rect x="201" y="180" width="274" height="19" fill="#D6EFF5"/>
<rect x="236" y="151" width="180" height="19" fill="#7ABBBB"/>
<rect x="236" y="151" width="180" height="19" fill="#D6EFF5"/>
<rect x="318" y="581" width="274" height="19" fill="#7ABBBB"/>
<rect x="318" y="581" width="274" height="19" fill="#D6EFF5"/>
<rect x="200" y="552" width="432" height="19" fill="#7ABBBB"/>
<rect x="200" y="552" width="432" height="19" fill="#D6EFF5"/>
<rect x="393" y="523" width="180" height="19" fill="#7ABBBB"/>
<rect x="393" y="523" width="180" height="19" fill="#D6EFF5"/>
<rect x="433" y="494" width="180" height="19" fill="#7ABBBB"/>
<rect x="433" y="494" width="180" height="19" fill="#D6EFF5"/>
<rect x="1082" y="413" width="257" height="19" fill="#7ABBBB"/>
<rect x="1082" y="413" width="257" height="19" fill="#D6EFF5"/>
<rect x="937" y="384" width="326" height="19" fill="#7ABBBB"/>
<rect x="937" y="384" width="326" height="19" fill="#D6EFF5"/>
<rect x="1024" y="355" width="326" height="19" fill="#7ABBBB"/>
<rect x="1024" y="355" width="326" height="19" fill="#D6EFF5"/>
<rect x="1193" y="500" width="210" height="19" fill="#7ABBBB"/>
<rect x="1193" y="500" width="210" height="19" fill="#D6EFF5"/>
<rect x="1243" y="471" width="213" height="19" fill="#7ABBBB"/>
<rect x="1243" y="471" width="213" height="19" fill="#D6EFF5"/>
<rect x="986" y="442" width="532" height="19" fill="#7ABBBB"/>
<rect x="986" y="442" width="532" height="19" fill="#D6EFF5"/>
<rect x="832" y="825" width="100" height="15" fill="#7ABBBB"/>
<rect x="832" y="825" width="100" height="15" fill="#A0DADA"/>
</svg>
